<svg xmlns="http://www.w3.org/2000/svg" width="1200" height="675" viewBox="0 0 1200 675" role="img" aria-labelledby="title desc">
  <title id="title">작은 회사 AI 브리핑 헤더 이미지</title>
  <desc id="desc">노트북과 휴대폰, 체크리스트가 놓인 업무 책상 위에 전화 보안, 업무 초안, 디자인 제작 흐름이 카드로 정리된 일러스트</desc>
  <rect width="1200" height="675" fill="#E5F0E2"/>
  <rect x="58" y="52" width="1084" height="568" rx="28" fill="#F3F7F1" stroke="#C8D8C8" stroke-width="2"/>

  <circle cx="1050" cy="118" r="38" fill="#D7EBDD"/>
  <circle cx="145" cy="560" r="30" fill="#CDE5CB"/>
  <rect x="109" y="102" width="150" height="28" rx="14" fill="#DDEADA"/>
  <rect x="916" y="558" width="168" height="28" rx="14" fill="#DDEADA"/>

  <g transform="translate(116 144)">
    <rect x="0" y="46" width="204" height="330" rx="30" fill="#17251C"/>
    <rect x="16" y="70" width="172" height="282" rx="20" fill="#FFFFFF"/>
    <rect x="42" y="95" width="78" height="14" rx="7" fill="#DCE8DA"/>
    <circle cx="104" cy="327" r="9" fill="#435247"/>
    <rect x="42" y="130" width="120" height="120" rx="20" fill="#E1EFE4"/>
    <path d="M104 154c29 0 52 23 52 52 0 6-1 12-3 18l-19-12c1-3 2-5 2-8 0-18-14-32-32-32s-32 14-32 32c0 17 14 31 32 31 7 0 13-2 18-6l17 12c-9 8-21 13-35 13-29 0-52-23-52-52s23-48 52-48z" fill="#236B4F"/>
    <path d="M88 203l13 13 29-32" fill="none" stroke="#17251C" stroke-width="10" stroke-linecap="round" stroke-linejoin="round"/>
    <rect x="38" y="273" width="130" height="12" rx="6" fill="#17251C"/>
    <rect x="38" y="294" width="104" height="10" rx="5" fill="#758678"/>
  </g>

  <g transform="translate(365 120)">
    <rect x="24" y="22" width="480" height="318" rx="22" fill="#17251C"/>
    <rect x="48" y="48" width="432" height="264" rx="12" fill="#FFFFFF"/>
    <rect x="0" y="340" width="528" height="34" rx="10" fill="#C4D3C4"/>
    <rect x="198" y="342" width="132" height="10" rx="5" fill="#96A995"/>
    <rect x="78" y="82" width="174" height="18" rx="9" fill="#17251C"/>
    <text x="82" y="97" font-family="Arial, sans-serif" font-size="14" font-weight="700" fill="#FFFFFF">오늘의 AI 업무판</text>
    <rect x="78" y="116" width="280" height="10" rx="5" fill="#9CAD9D"/>
    <rect x="78" y="137" width="226" height="10" rx="5" fill="#D3DED2"/>

    <rect x="78" y="178" width="118" height="92" rx="8" fill="#E1EFE4" stroke="#A9CDAF"/>
    <circle cx="104" cy="207" r="14" fill="#236B4F"/>
    <path d="M99 207l5 6 10-13" fill="none" stroke="#FFFFFF" stroke-width="4" stroke-linecap="round" stroke-linejoin="round"/>
    <rect x="124" y="198" width="48" height="9" rx="4.5" fill="#17251C"/>
    <text x="124" y="207" font-family="Arial, sans-serif" font-size="9" font-weight="700" fill="#FFFFFF">확인</text>
    <rect x="124" y="218" width="42" height="8" rx="4" fill="#758678"/>
    <rect x="98" y="244" width="72" height="8" rx="4" fill="#A9CDAF"/>

    <rect x="216" y="178" width="118" height="92" rx="8" fill="#E8F1E8" stroke="#C8D8C8"/>
    <rect x="239" y="199" width="72" height="10" rx="5" fill="#17251C"/>
    <text x="242" y="208" font-family="Arial, sans-serif" font-size="9" font-weight="700" fill="#FFFFFF">초안</text>
    <rect x="239" y="220" width="52" height="8" rx="4" fill="#758678"/>
    <rect x="239" y="242" width="62" height="8" rx="4" fill="#C0D2C0"/>

    <rect x="354" y="178" width="88" height="92" rx="8" fill="#E6F2D9" stroke="#B7D69C"/>
    <rect x="374" y="198" width="48" height="36" rx="6" fill="#5C9A66"/>
    <rect x="374" y="247" width="48" height="8" rx="4" fill="#17251C"/>
    <text x="377" y="255" font-family="Arial, sans-serif" font-size="8" font-weight="700" fill="#FFFFFF">예약</text>
  </g>

  <g transform="translate(905 164)">
    <rect x="0" y="0" width="172" height="80" rx="10" fill="#FFFFFF" stroke="#C8D8C8"/>
    <rect x="18" y="20" width="44" height="40" rx="8" fill="#E1EFE4"/>
    <path d="M30 42l8 8 17-22" fill="none" stroke="#236B4F" stroke-width="5" stroke-linecap="round" stroke-linejoin="round"/>
    <rect x="76" y="21" width="72" height="10" rx="5" fill="#17251C"/>
    <rect x="76" y="43" width="54" height="8" rx="4" fill="#758678"/>

    <rect x="0" y="102" width="172" height="80" rx="10" fill="#FFFFFF" stroke="#C8D8C8"/>
    <rect x="18" y="122" width="44" height="40" rx="8" fill="#E8F1E8"/>
    <path d="M30 134h20M30 146h28M30 158h16" stroke="#236B4F" stroke-width="5" stroke-linecap="round"/>
    <rect x="76" y="123" width="70" height="10" rx="5" fill="#17251C"/>
    <rect x="76" y="145" width="64" height="8" rx="4" fill="#758678"/>

    <rect x="0" y="204" width="172" height="80" rx="10" fill="#FFFFFF" stroke="#C8D8C8"/>
    <rect x="18" y="224" width="44" height="40" rx="8" fill="#E6F2D9"/>
    <circle cx="40" cy="244" r="14" fill="#5C9A66"/>
    <rect x="76" y="225" width="76" height="10" rx="5" fill="#17251C"/>
    <rect x="76" y="247" width="52" height="8" rx="4" fill="#758678"/>
  </g>

  <g transform="translate(365 530)">
    <rect x="0" y="0" width="456" height="66" rx="12" fill="#FFFFFF" stroke="#C8D8C8"/>
    <rect x="24" y="22" width="22" height="22" rx="5" fill="#E1EFE4" stroke="#236B4F" stroke-width="3"/>
    <path d="M30 32l6 7 14-17" fill="none" stroke="#236B4F" stroke-width="4" stroke-linecap="round" stroke-linejoin="round"/>
    <rect x="66" y="20" width="172" height="11" rx="5.5" fill="#17251C"/>
    <rect x="66" y="41" width="296" height="8" rx="4" fill="#8E9F90"/>
  </g>

  <g transform="translate(788 72)">
    <rect x="0" y="0" width="120" height="36" rx="18" fill="#17251C"/>
    <circle cx="24" cy="18" r="7" fill="#8FBF5F"/>
    <rect x="42" y="14" width="54" height="8" rx="4" fill="#FFFFFF"/>
    <text x="42" y="22" font-family="Arial, sans-serif" font-size="8" font-weight="700" fill="#17251C">브리핑</text>
  </g>
</svg>
